<?xml version="1.0" encoding="UTF-8"?>
<svg id="Camada_2" data-name="Camada 2" xmlns="http://www.w3.org/2000/svg" viewBox="0 0 256.59 696">
  <defs>
    <style>
      .cls-1 {
        fill: #1d1d1b;
        stroke: #1d1d1b;
        stroke-miterlimit: 10;
      }
    </style>
  </defs>
  <g id="Camada_3" data-name="Camada 3">
    <g id="Camada_4" data-name="Camada 4">
      <g>
        <path class="cls-1" d="M255.67,419.66c-.29-3.83-.86-5.36-4.69-9.77-5.84-4.79-10.82-8.23-10.82-8.23l-68.55-52.09-24.03-95.07L26.5,160.77V.5H.5V695.5H25.5v-52.37l.41-.45,77.49-77.62s7.88-6.57,8.46-17.3-1.88-16.02-4.12-19.91c-2.23-3.89-14.94-21.13-14.94-21.13L26.5,412.14v-7.18l88.23-104.89,16.18,68.27s3.83,10.82,10.34,16.85,80.14,61.95,80.14,61.95c0,0,9.19,4.6,20.78-.29,10.63-6.32,12.73-13.69,12.93-14.65,.19-.96,1.72-3.45,.57-12.54Zm-213.22,124.34l-29.3,27.7v-66l29.3,38.3Z"/>
        <circle class="cls-1" cx="142.09" cy="144.68" r="70.34" transform="translate(-60.69 142.85) rotate(-45)"/>
      </g>
    </g>
  </g>
</svg>