<?xml version="1.0" encoding="UTF-8"?>
<svg id="Camada_2" data-name="Camada 2" xmlns="http://www.w3.org/2000/svg" viewBox="0 0 255.37 695.53">
  <defs>
    <style>
      .cls-1 {
        fill: #1d1d1b;
        stroke: #1d1d1b;
        stroke-miterlimit: 10;
      }
    </style>
  </defs>
  <g id="Camada_2-2" data-name="Camada 2">
    <path class="cls-1" d="M.86,335.13s-3.64-13.02,12.26-24.89,32.55-3.26,37.72,1.53c4.6,6.51,51.85,78.18,51.85,78.18l126.69-130.13,.13-56.87-37.4-31.53-85.72,64.24s-17.04,9.77-31.79-6.13,2.11-31.4,8.33-35.62c6.51-5.07,98.23-72.19,98.23-72.19,0,0,18.38-17.33,37.05-1.53,5.94,4.12,11.3,8.04,11.3,8.04V.5h25.37l-.1,694.53h-25.37v-40.79s-12.54,16.09-29.3,9-24.03-18.19-20.68-35.04c5.94-13.21,8.43-13.31,12.06-16.95l37.82-37.82v-119.59l-38.97-53.9-64.44,65.3s-13.6,12.54-27.57,9.96-17.33-5.27-24.22-13.02l-11.2-19.15L.86,335.13Z"/>
  </g>
</svg>