<?xml version="1.0" encoding="utf-8"?>
<!-- Generator: Adobe Illustrator 28.1.0, SVG Export Plug-In . SVG Version: 6.00 Build 0)  -->
<svg version="1.1" id="ODIN_x27_S_HORN" xmlns="http://www.w3.org/2000/svg" xmlns:xlink="http://www.w3.org/1999/xlink" x="0px"
	 y="0px" viewBox="0 0 841.89 595.28" style="enable-background:new 0 0 841.89 595.28;" xml:space="preserve">
<path d="M382.08,327.74c8.68,5.36,16.34,5.87,16.34,5.87c12.14-25.97,35.22-26.54,35.22-26.54c1.42-3.6,1.89-12.2,0-17.61
	C433.64,289.46,400.2,289.2,382.08,327.74z"/>
<path d="M473.45,347.94c0.33-10.2-3.68-16.45-3.68-16.45c-29.92,3.76-42.91-17.33-42.91-17.33l-14.19,8.15
	C412.67,322.31,427.52,351.42,473.45,347.94z"/>
<path d="M441.82,259.25c-5.13,0.87-12.47,11.34-12.47,11.34c18.08,24.14,6.19,45.86,6.19,45.86c3.45,5.82,14.11,8.29,14.11,8.29
	S467.58,297.44,441.82,259.25z"/>
<path d="M459.62,292.12c2.14,4.2-0.5,18.5-0.5,18.5s46,36.25,0.85,74.51C517.12,348.62,470.88,295.58,459.62,292.12z"/>
<path d="M432.25,346c-6.55-2.85-9.05-4.7-14.5-9.23c-8.53,1.46-54.88,9.36-61.08-38.35C355.25,360.5,421.12,357.12,432.25,346z"/>
<path d="M401.81,294.22c5.32-2.78,16.63-8.11,16.63-8.11s8.23-50,59.6-33.54C423.12,225.6,399.67,279.96,401.81,294.22z"/>
</svg>
